<?xml version="1.0" encoding="utf-8"?>
<!-- Generator: Adobe Illustrator 15.0.0, SVG Export Plug-In . SVG Version: 6.00 Build 0)  -->
<!DOCTYPE svg PUBLIC "-//W3C//DTD SVG 1.1//EN" "http://www.w3.org/Graphics/SVG/1.1/DTD/svg11.dtd">
<svg version="1.1" id="Layer_1" xmlns="http://www.w3.org/2000/svg" xmlns:xlink="http://www.w3.org/1999/xlink" x="0px" y="0px"
	 width="20px" height="20px" viewBox="0 0 20 20" enable-background="new 0 0 20 20" xml:space="preserve">
<path display="none" fill="#F7B818" d="M8.938,8.156l-7.282,7.281c-0.094,0.094-0.234,0.155-0.359,0.155s-0.266-0.063-0.359-0.155
	l-0.781-0.781C0.063,14.563,0,14.438,0,14.297c0-0.125,0.063-0.266,0.156-0.359l6.141-6.141L0.156,1.656
	C0.063,1.563,0,1.422,0,1.297s0.063-0.266,0.156-0.359l0.781-0.781C1.031,0.063,1.172,0,1.297,0s0.266,0.063,0.359,0.156
	l7.282,7.281c0.094,0.094,0.156,0.234,0.156,0.359S9.032,8.063,8.938,8.156z"/>
<path fill="#FFFFFF" d="M10.409,4.497l7.254,7.315c0.093,0.096,0.155,0.236,0.155,0.361c0,0.123-0.065,0.264-0.158,0.357
	l-0.785,0.775c-0.092,0.095-0.217,0.158-0.358,0.156c-0.125-0.001-0.265-0.066-0.359-0.157L10.04,7.134l-6.163,6.099
	c-0.093,0.093-0.235,0.157-0.36,0.154c-0.125,0-0.266-0.064-0.358-0.157L2.38,12.445c-0.094-0.097-0.157-0.236-0.156-0.36
	c0-0.126,0.064-0.268,0.157-0.358l7.308-7.234C9.784,4.4,9.924,4.339,10.049,4.34C10.174,4.341,10.315,4.403,10.409,4.497z"/>
</svg>
