<?xml version="1.0" encoding="utf-8"?>
<!-- Generator: Adobe Illustrator 15.0.0, SVG Export Plug-In . SVG Version: 6.00 Build 0)  -->
<!DOCTYPE svg PUBLIC "-//W3C//DTD SVG 1.1//EN" "http://www.w3.org/Graphics/SVG/1.1/DTD/svg11.dtd">
<svg version="1.1" id="Layer_1" xmlns="http://www.w3.org/2000/svg" xmlns:xlink="http://www.w3.org/1999/xlink" x="0px" y="0px"
	 width="20px" height="20px" viewBox="0 0 20 20" enable-background="new 0 0 20 20" xml:space="preserve">
<path display="none" fill="#F7B818" d="M8.938,8.156l-7.282,7.281c-0.094,0.094-0.234,0.155-0.359,0.155s-0.266-0.063-0.359-0.155
	l-0.781-0.781C0.063,14.563,0,14.438,0,14.297c0-0.125,0.063-0.266,0.156-0.359l6.141-6.141L0.156,1.656
	C0.063,1.563,0,1.422,0,1.297s0.063-0.266,0.156-0.359l0.781-0.781C1.031,0.063,1.172,0,1.297,0s0.266,0.063,0.359,0.156
	l7.282,7.281c0.094,0.094,0.156,0.234,0.156,0.359S9.032,8.063,8.938,8.156z"/>
<path fill="#FFFFFF" d="M10.337,14.339l7.314-7.246c0.094-0.094,0.157-0.234,0.158-0.359c0.001-0.125-0.063-0.266-0.155-0.359
	L16.876,5.59c-0.092-0.095-0.216-0.16-0.357-0.16c-0.125,0-0.266,0.063-0.36,0.154L9.99,11.696L3.877,5.529
	c-0.092-0.094-0.234-0.16-0.358-0.16c-0.125,0-0.266,0.063-0.36,0.155L2.375,6.302C2.28,6.396,2.216,6.535,2.216,6.66
	C2.215,6.786,2.278,6.928,2.371,7.02l7.247,7.316c0.094,0.094,0.233,0.156,0.358,0.156C10.101,14.493,10.243,14.433,10.337,14.339z"
	/>
</svg>
