<?xml version="1.0" encoding="utf-8"?>
<!-- Generator: Adobe Illustrator 15.0.0, SVG Export Plug-In . SVG Version: 6.00 Build 0)  -->
<!DOCTYPE svg PUBLIC "-//W3C//DTD SVG 1.1//EN" "http://www.w3.org/Graphics/SVG/1.1/DTD/svg11.dtd">
<svg version="1.1" id="Layer_1" xmlns="http://www.w3.org/2000/svg" xmlns:xlink="http://www.w3.org/1999/xlink" x="0px" y="0px"
	 width="20px" height="20px" viewBox="0 0 20 20" enable-background="new 0 0 20 20" xml:space="preserve">
<path display="none" fill="#F7B818" d="M8.938,8.156l-7.282,7.281c-0.094,0.094-0.234,0.155-0.359,0.155s-0.266-0.063-0.359-0.155
	l-0.781-0.781C0.063,14.563,0,14.438,0,14.297c0-0.125,0.063-0.266,0.156-0.359l6.141-6.141L0.156,1.656
	C0.063,1.563,0,1.422,0,1.297s0.063-0.266,0.156-0.359l0.781-0.781C1.031,0.063,1.172,0,1.297,0s0.266,0.063,0.359,0.156
	l7.282,7.281c0.094,0.094,0.156,0.234,0.156,0.359S9.032,8.063,8.938,8.156z"/>
<path fill="#FFFFFF" d="M14.391,10.031l-7.28,7.281c-0.094,0.094-0.234,0.155-0.359,0.155s-0.266-0.063-0.359-0.155l-0.781-0.781
	c-0.095-0.094-0.158-0.219-0.158-0.359c0-0.125,0.063-0.266,0.156-0.359l6.141-6.141L5.61,3.531
	C5.516,3.438,5.453,3.297,5.453,3.172s0.063-0.266,0.156-0.359L6.39,2.032c0.095-0.094,0.235-0.157,0.36-0.157
	s0.266,0.063,0.359,0.156l7.281,7.281c0.094,0.094,0.155,0.234,0.155,0.359S14.485,9.938,14.391,10.031z"/>
</svg>
