<?xml version="1.0" encoding="utf-8"?>
<!-- Generator: Adobe Illustrator 15.0.0, SVG Export Plug-In  -->
<!DOCTYPE svg PUBLIC "-//W3C//DTD SVG 1.1//EN" "http://www.w3.org/Graphics/SVG/1.1/DTD/svg11.dtd" [
	<!ENTITY ns_flows "http://ns.adobe.com/Flows/1.0/">
]>
<svg version="1.1"
	 xmlns="http://www.w3.org/2000/svg" xmlns:xlink="http://www.w3.org/1999/xlink" xmlns:a="http://ns.adobe.com/AdobeSVGViewerExtensions/3.0/"
	 x="0px" y="0px" width="20px" height="20px" viewBox="-5.453 -2 20 20" enable-background="new -5.453 -2 20 20"
	 xml:space="preserve">
<defs>
</defs>
<path fill="#F7B818" d="M8.938,8.156l-7.282,7.281c-0.094,0.094-0.234,0.156-0.359,0.156s-0.266-0.063-0.359-0.156l-0.781-0.781
	C0.063,14.563,0,14.438,0,14.297c0-0.125,0.063-0.266,0.156-0.359l6.141-6.141L0.156,1.656C0.063,1.563,0,1.422,0,1.297
	s0.063-0.266,0.156-0.359l0.781-0.781C1.031,0.063,1.172,0,1.297,0s0.266,0.063,0.359,0.156l7.282,7.281
	c0.094,0.094,0.156,0.234,0.156,0.359S9.032,8.063,8.938,8.156z"/>
</svg>
